<?xml version="1.0" standalone="no"?>
<!DOCTYPE svg PUBLIC "-//W3C//DTD SVG 20010904//EN"
 "http://www.w3.org/TR/2001/REC-SVG-20010904/DTD/svg10.dtd">
<svg version="1.0" xmlns="http://www.w3.org/2000/svg"
 width="512.000000pt" height="512.000000pt" viewBox="0 0 512.000000 512.000000"
 preserveAspectRatio="xMidYMid meet">

<g transform="translate(0.000000,512.000000) scale(0.100000,-0.100000)"
fill="#fff" stroke="none">
<path d="M137 3920 c-52 -10 -88 -38 -115 -90 l-22 -44 0 -1226 0 -1226 22
-44 c28 -54 62 -80 119 -91 57 -11 4781 -11 4838 0 57 11 91 37 118 91 l23 44
0 1226 0 1226 -22 44 c-28 54 -62 80 -119 91 -54 10 -4789 10 -4842 -1z m4643
-1360 l0 -1020 -2220 0 -2220 0 0 1020 0 1020 2220 0 2220 0 0 -1020z"/>
<path d="M1470 3229 c-32 -13 -68 -47 -86 -81 -16 -31 -18 -105 -5 -141 6 -14
89 -120 186 -236 l175 -211 -175 -211 c-97 -116 -180 -222 -186 -236 -28 -73
-1 -159 64 -207 40 -30 144 -30 184 0 15 11 91 95 168 187 77 91 147 173 155
182 14 13 32 -5 172 -174 104 -124 169 -194 192 -205 74 -35 175 -7 216 59 29
48 36 111 17 155 -8 19 -92 127 -186 240 -94 112 -171 207 -171 210 0 3 77 98
171 210 94 113 177 219 185 237 46 106 -38 232 -154 233 -77 0 -103 -21 -270
-221 -140 -169 -158 -187 -172 -174 -8 9 -78 91 -155 183 -77 91 -155 177
-174 189 -37 25 -105 30 -151 12z"/>
<path d="M2813 3215 c-26 -16 -49 -41 -62 -68 -21 -42 -21 -56 -21 -587 0
-532 0 -545 21 -587 14 -29 35 -52 64 -68 l43 -26 395 3 c383 3 396 4 424 24
15 11 39 36 51 55 32 46 28 138 -7 188 -47 66 -73 71 -378 71 l-273 0 0 445
c0 424 -1 448 -20 485 -28 56 -72 83 -139 87 -46 3 -63 0 -98 -22z"/>
</g>
</svg>
