<?xml version="1.0" standalone="no"?>
<!DOCTYPE svg PUBLIC "-//W3C//DTD SVG 20010904//EN"
 "http://www.w3.org/TR/2001/REC-SVG-20010904/DTD/svg10.dtd">
<svg version="1.0" xmlns="http://www.w3.org/2000/svg"
 width="512.000000pt" height="512.000000pt" viewBox="0 0 512.000000 512.000000"
 preserveAspectRatio="xMidYMid meet">

<g transform="translate(0.000000,512.000000) scale(0.100000,-0.100000)"
fill="#fff" stroke="none">
<path d="M4100 5113 c-542 -39 -1081 -221 -1523 -513 -173 -114 -186 -128
-199 -221 -5 -41 -8 -100 -5 -131 3 -32 2 -58 -2 -58 -4 0 -18 12 -32 26 -50
53 -129 70 -187 40 -45 -24 -1275 -1265 -1319 -1331 -55 -82 -108 -189 -138
-278 -53 -158 -55 -199 -55 -1022 l0 -760 -314 -315 c-340 -340 -338 -338
-321 -427 9 -49 69 -109 118 -118 89 -17 87 -19 427 321 l315 314 755 0 c446
0 784 4 825 10 171 25 339 88 476 180 35 24 136 113 224 200 88 86 172 161
186 167 34 15 77 71 85 111 13 66 -3 101 -89 189 l-81 83 199 0 c267 0 333 19
380 110 8 16 111 125 229 244 372 374 557 616 722 946 306 613 408 1268 302
1938 -32 207 -54 228 -265 261 -231 36 -508 49 -713 34z m575 -336 l90 -12 12
-90 c7 -49 15 -171 19 -270 25 -663 -185 -1310 -599 -1844 -45 -58 -201 -226
-346 -373 l-264 -267 -402 -3 -403 -3 -43 -31 c-23 -17 -51 -46 -61 -65 -20
-38 -24 -109 -7 -142 6 -12 83 -94 170 -183 l160 -160 -113 -110 c-121 -118
-195 -169 -304 -210 -138 -52 -169 -54 -807 -54 l-592 0 1402 1402 c1526 1527
1426 1420 1408 1515 -9 49 -69 109 -118 118 -95 18 12 118 -1515 -1408 l-1403
-1402 3 630 3 630 32 93 c62 183 61 182 669 792 l553 555 114 -112 c62 -62
125 -117 141 -122 71 -28 152 -2 194 62 l27 41 3 274 4 274 66 43 c381 244
833 400 1292 445 119 11 496 3 615 -13z"/>
</g>
</svg>
