<?xml version="1.0" standalone="no"?>
<!DOCTYPE svg PUBLIC "-//W3C//DTD SVG 20010904//EN"
 "http://www.w3.org/TR/2001/REC-SVG-20010904/DTD/svg10.dtd">
<svg version="1.0" xmlns="http://www.w3.org/2000/svg"
 width="512.000000pt" height="512.000000pt" viewBox="0 0 512.000000 512.000000"
 preserveAspectRatio="xMidYMid meet">

<g transform="translate(0.000000,512.000000) scale(0.100000,-0.100000)"
fill="#fff" stroke="none">
<path d="M2360 4970 l0 -150 150 0 150 0 0 150 0 150 -150 0 -150 0 0 -150z"/>
<path d="M1707 4843 c-4 -3 -7 -71 -7 -150 l0 -143 150 0 150 0 0 150 0 150
-143 0 c-79 0 -147 -3 -150 -7z"/>
<path d="M3027 4843 c-4 -3 -7 -71 -7 -150 l0 -143 150 0 150 0 0 150 0 150
-143 0 c-79 0 -147 -3 -150 -7z"/>
<path d="M2445 4533 c-183 -24 -353 -169 -408 -348 -83 -268 78 -559 348 -630
268 -69 540 91 611 360 29 109 11 256 -44 359 -38 72 -145 175 -215 209 -93
45 -197 63 -292 50z m165 -323 c22 -11 52 -39 67 -62 24 -36 28 -52 28 -114 0
-66 -3 -76 -31 -111 -94 -116 -253 -110 -329 12 -24 39 -30 58 -29 104 2 155
153 243 294 171z"/>
<path d="M1430 4035 l0 -156 148 3 147 3 0 150 0 150 -147 3 -148 3 0 -156z"/>
<path d="M3300 4035 l0 -156 148 3 147 3 0 150 0 150 -147 3 -148 3 0 -156z"/>
<path d="M1702 3373 l3 -148 148 -3 147 -3 0 151 0 150 -150 0 -151 0 3 -147z"/>
<path d="M3022 3373 l3 -148 148 -3 147 -3 0 151 0 150 -150 0 -151 0 3 -147z"/>
<path d="M2360 3100 l0 -150 150 0 150 0 0 150 0 150 -150 0 -150 0 0 -150z"/>
<path d="M4550 2750 c-64 -12 -127 -36 -180 -70 -25 -16 -238 -223 -475 -460
l-430 -430 -157 0 c-87 0 -158 3 -158 8 0 4 7 29 15 56 17 56 19 170 4 235
-19 84 -60 154 -133 227 -73 72 -130 106 -221 130 -76 21 -1288 20 -1406 -1
-168 -29 -348 -109 -476 -212 -39 -32 -265 -257 -502 -500 l-431 -442 0 -645
0 -646 375 0 375 0 385 330 385 330 1123 0 1124 0 535 558 c747 779 733 764
768 836 169 356 -135 764 -520 696z m170 -315 c53 -28 100 -103 100 -162 0
-82 2 -80 -601 -708 l-580 -605 -1115 0 -1116 0 -385 -330 -385 -330 -169 0
-169 0 0 435 0 434 395 405 c218 222 417 420 443 439 61 45 149 89 237 118
l70 24 647 3 c634 3 648 2 687 -17 61 -32 94 -82 99 -150 5 -74 -21 -130 -80
-168 l-42 -28 -523 -3 -523 -3 0 -149 0 -150 942 0 942 0 470 474 c410 414
476 476 511 485 45 11 108 5 145 -14z"/>
</g>
</svg>
