<?xml version="1.0" standalone="no"?>
<!DOCTYPE svg PUBLIC "-//W3C//DTD SVG 20010904//EN"
 "http://www.w3.org/TR/2001/REC-SVG-20010904/DTD/svg10.dtd">
<svg version="1.0" xmlns="http://www.w3.org/2000/svg"
 width="512.000000pt" height="512.000000pt" viewBox="0 0 512.000000 512.000000"
 preserveAspectRatio="xMidYMid meet">

<g transform="translate(0.000000,512.000000) scale(0.100000,-0.100000)"
fill="#fff" stroke="none">
<path d="M2330 5105 c-222 -49 -408 -237 -455 -460 -8 -38 -15 -110 -15 -158
0 -80 -2 -90 -25 -112 -13 -14 -33 -25 -44 -25 -10 0 -63 38 -117 85 -147 129
-266 179 -429 179 -207 0 -371 -93 -571 -322 -118 -134 -168 -259 -168 -417 0
-163 50 -282 179 -429 47 -54 85 -107 85 -117 0 -11 -11 -31 -25 -44 -22 -23
-32 -25 -112 -25 -191 -1 -330 -55 -454 -179 -137 -137 -179 -259 -179 -521 0
-262 42 -384 179 -521 124 -124 263 -178 454 -179 80 0 90 -2 112 -25 14 -13
25 -33 25 -44 0 -10 -38 -63 -85 -117 -129 -147 -179 -266 -179 -429 0 -158
50 -283 168 -417 153 -175 296 -276 436 -309 91 -21 223 -15 315 15 98 31 155
66 263 162 45 41 92 74 103 74 11 0 31 -11 44 -25 23 -22 25 -32 25 -112 1
-191 55 -330 179 -454 55 -55 96 -86 151 -113 121 -59 186 -68 480 -64 l257 3
40 27 c22 15 51 44 64 65 l24 38 0 365 0 365 -24 38 c-13 21 -42 50 -64 65
-34 23 -52 27 -107 27 -55 0 -73 -4 -107 -27 -22 -15 -51 -44 -64 -65 -23 -37
-24 -46 -27 -271 l-3 -234 -133 4 c-126 3 -135 4 -172 30 -74 52 -87 83 -94
231 -8 151 -27 219 -87 306 -97 140 -294 222 -463 192 -100 -18 -181 -62 -269
-146 -92 -87 -129 -108 -196 -108 -70 0 -106 21 -208 122 -103 100 -130 145
-130 216 0 67 21 104 108 196 161 169 196 362 101 553 -44 89 -80 133 -148
179 -86 60 -155 79 -305 87 -148 7 -179 20 -231 94 -27 39 -27 41 -27 206 0
165 0 167 27 206 52 74 83 87 231 94 150 8 219 27 305 87 68 46 104 90 148
179 95 191 60 384 -101 553 -87 92 -108 129 -108 196 0 70 21 106 122 208 100
103 145 130 216 130 67 0 104 -21 196 -108 169 -161 362 -196 553 -101 89 44
133 80 179 148 59 86 79 155 87 303 6 118 9 134 33 170 15 22 43 51 64 65 34
23 47 25 169 28 l133 4 3 -234 c3 -225 4 -234 27 -271 13 -21 42 -50 64 -65
34 -23 52 -27 107 -27 55 0 73 4 107 27 22 15 51 44 64 65 l24 38 0 365 0 365
-24 38 c-13 21 -42 50 -64 65 l-40 27 -266 2 c-200 2 -282 -2 -331 -12z"/>
<path d="M4687 4550 c-147 -37 -252 -165 -264 -322 l-5 -73 -217 -217 -216
-218 -750 0 c-610 0 -768 -3 -848 -15 -428 -64 -788 -368 -927 -783 -202 -602
130 -1258 740 -1462 170 -58 211 -60 1035 -60 l750 0 216 -209 216 -210 6 -75
c10 -137 85 -248 205 -304 48 -22 71 -27 142 -27 104 0 174 29 245 100 71 71
100 141 100 245 0 104 -29 174 -100 245 -68 68 -140 98 -244 101 l-84 3 -241
239 c-133 131 -257 250 -276 263 l-35 24 -855 6 c-956 6 -896 1 -1055 80 -196
97 -344 278 -401 489 -25 89 -25 291 0 380 57 211 205 392 401 489 159 79 99
74 1055 80 l855 6 35 24 c19 13 146 134 281 268 l246 245 79 2 c98 3 172 34
239 101 71 71 100 141 100 245 0 71 -5 94 -27 142 -33 72 -103 142 -173 174
-61 28 -167 39 -228 24z"/>
<path d="M2557 2900 c-98 -25 -191 -103 -235 -198 -22 -48 -27 -71 -27 -142 0
-104 29 -174 100 -245 70 -71 141 -99 245 -100 74 0 93 4 145 29 32 16 78 49
101 73 l42 43 777 0 777 0 42 -43 c23 -24 69 -57 101 -73 52 -25 71 -29 145
-29 104 1 175 29 245 100 71 71 100 141 100 245 0 104 -29 174 -100 245 -70
71 -141 99 -245 100 -74 0 -93 -4 -145 -29 -32 -16 -78 -49 -101 -73 l-42 -43
-777 0 -777 0 -42 43 c-82 85 -218 125 -329 97z"/>
</g>
</svg>
