<?xml version="1.0" standalone="no"?>
<!DOCTYPE svg PUBLIC "-//W3C//DTD SVG 20010904//EN"
 "http://www.w3.org/TR/2001/REC-SVG-20010904/DTD/svg10.dtd">
<svg version="1.0" xmlns="http://www.w3.org/2000/svg"
 width="512.000000pt" height="512.000000pt" viewBox="0 0 512.000000 512.000000"
 preserveAspectRatio="xMidYMid meet">

<g transform="translate(0.000000,512.000000) scale(0.100000,-0.100000)"
fill="#fff" stroke="none">
<path d="M2492 5109 c-48 -14 -109 -80 -123 -131 -23 -88 12 -182 86 -228 32
-20 58 -24 179 -31 589 -35 1056 -239 1451 -634 334 -334 538 -738 612 -1210
24 -151 24 -479 0 -630 -74 -472 -278 -876 -612 -1210 -334 -334 -738 -538
-1210 -612 -78 -12 -170 -17 -315 -17 -362 0 -662 69 -970 224 -402 202 -758
558 -960 960 -137 273 -208 551 -229 897 -7 129 -11 147 -34 182 -40 61 -90
86 -168 86 -54 0 -72 -5 -106 -27 -22 -15 -51 -44 -64 -65 -23 -36 -24 -47
-23 -183 3 -383 110 -783 310 -1150 344 -633 970 -1107 1670 -1264 217 -49
324 -60 574 -60 250 0 357 11 574 60 943 211 1709 977 1920 1920 49 217 60
324 60 574 0 320 -33 530 -128 814 -336 1004 -1269 1705 -2316 1741 -86 3
-158 1 -178 -6z"/>
<path d="M1593 4931 c-174 -72 -197 -86 -230 -133 -66 -97 -28 -234 80 -290
65 -33 126 -22 299 51 167 71 190 86 220 144 67 132 -28 288 -176 287 -39 -1
-85 -15 -193 -59z"/>
<path d="M928 4516 c-20 -7 -54 -27 -75 -43 -58 -47 -219 -216 -236 -249 -84
-163 83 -349 250 -279 48 20 277 247 303 300 38 78 17 171 -53 232 -57 50
-121 63 -189 39z"/>
<path d="M355 3776 c-38 -17 -79 -55 -98 -92 -8 -16 -40 -91 -71 -166 -42
-102 -56 -149 -56 -186 0 -146 156 -240 287 -174 58 30 73 53 144 220 73 172
84 234 51 298 -11 21 -31 49 -44 61 -53 49 -149 67 -213 39z"/>
<path d="M2492 3549 c-45 -13 -108 -80 -121 -126 -7 -23 -11 -161 -11 -350 l0
-312 -332 -3 c-331 -3 -333 -3 -371 -27 -21 -13 -50 -42 -65 -64 -23 -34 -27
-52 -27 -107 0 -55 4 -73 27 -107 15 -22 44 -51 65 -64 38 -24 40 -24 370 -27
l332 -3 3 -332 c3 -330 3 -332 27 -370 13 -21 42 -50 64 -65 34 -23 52 -27
107 -27 55 0 73 4 107 27 22 15 51 44 64 65 24 38 24 40 27 370 l3 332 333 3
333 3 40 27 c63 41 88 90 88 169 0 54 -5 72 -27 106 -15 22 -44 51 -65 64 -38
24 -40 24 -370 27 l-332 3 -3 332 c-3 330 -3 332 -27 370 -47 76 -151 113
-239 86z"/>
</g>
</svg>
