<?xml version="1.0" encoding="utf-8"?>
<svg viewBox="286.574 212.465 24.018 24" xmlns="http://www.w3.org/2000/svg">
  <path d="M 298.592 212.465 C 289.354 212.465 283.581 222.465 288.199 230.465 C 292.818 238.465 304.365 238.465 308.984 230.465 C 310.037 228.641 310.592 226.572 310.592 224.465 C 310.585 217.841 305.216 212.472 298.592 212.465 Z M 307.239 219.465 L 304.018 219.465 C 303.297 217.794 302.347 216.231 301.197 214.821 C 303.743 215.514 305.914 217.183 307.239 219.465 Z M 303.092 224.465 C 303.083 225.483 302.923 226.494 302.616 227.465 L 294.568 227.465 C 294.26 226.494 294.1 225.483 294.092 224.465 C 294.1 223.447 294.26 222.436 294.568 221.465 L 302.616 221.465 C 302.923 222.436 303.083 223.447 303.092 224.465 Z M 295.37 229.465 L 301.814 229.465 C 300.965 231.141 299.88 232.686 298.592 234.053 C 297.303 232.686 296.218 231.141 295.37 229.465 Z M 295.37 219.465 C 296.218 217.789 297.304 216.244 298.592 214.877 C 299.88 216.244 300.965 217.789 301.814 219.465 Z M 295.992 214.821 C 294.839 216.231 293.888 217.794 293.166 219.465 L 289.945 219.465 C 291.271 217.182 293.443 215.513 295.992 214.821 Z M 289.053 221.465 L 292.492 221.465 C 292.232 222.444 292.098 223.452 292.092 224.465 C 292.098 225.478 292.232 226.486 292.492 227.465 L 289.053 227.465 C 288.438 225.512 288.438 223.418 289.053 221.465 Z M 289.945 229.465 L 293.166 229.465 C 293.888 231.136 294.839 232.699 295.992 234.109 C 293.443 233.417 291.271 231.749 289.945 229.465 Z M 301.197 234.109 C 302.347 232.699 303.297 231.136 304.018 229.465 L 307.239 229.465 C 305.914 231.748 303.743 233.416 301.197 234.109 Z M 308.131 227.465 L 304.692 227.465 C 304.951 226.486 305.085 225.478 305.092 224.465 C 305.085 223.452 304.951 222.444 304.692 221.465 L 308.129 221.465 C 308.743 223.418 308.743 225.512 308.129 227.465 Z"/>
</svg>