<?xml version="1.0" encoding="utf-8"?>
<svg viewBox="0 0 500 500" xmlns="http://www.w3.org/2000/svg">
  <rect x="0.06" y="0.267" width="509.27" height="500.703" style="fill: rgb(27, 72, 196);" transform="matrix(0, -1, 1, 0, -0.792, 509.181305)"/>
  <g transform="matrix(0.1, 0, 0, -0.1, -3.013426, 512.990417)" fill="#000000" stroke="none">
    <path d="M1512 4287 l-602 -302 987 -493 988 -494 600 308 600 308 -984 488 c-541 268 -984 488 -985 487 0 0 -272 -136 -604 -302z" style="fill: rgb(255, 255, 255);"/>
    <path d="M870 3508 l1 -433 1012 -503 1012 -503 617 313 618 313 0 433 c0 237 -3 432 -7 432 -5 0 -284 -142 -622 -315 l-614 -314 -1008 505 -1009 504 0 -432z" style="fill: rgb(255, 255, 255);"/>
    <path d="M1770 2388 l0 -173 495 -248 494 -247 236 117 235 118 0 108 0 108 -168 -85 -168 -85 -70 34 c-38 20 -291 145 -561 280 l-493 245 0 -172z" style="fill: rgb(255, 255, 255);"/>
    <path d="M1571 2195 l-144 -63 599 -301 599 -301 240 117 c132 64 346 169 476 233 l235 117 -149 75 -149 75 4 -116 3 -116 -265 -133 -265 -132 -520 262 -520 263 3 43 c2 23 2 42 0 41 -2 0 -68 -29 -147 -64z" style="fill: rgb(255, 255, 255);"/>
    <path d="M3323 2217 c-20 -11 -6 -20 164 -107 l187 -95 0 -93 c1 -52 -3 -97 -9 -101 -5 -4 -242 -120 -525 -259 l-515 -253 -635 316 c-349 173 -642 319 -650 324 -10 6 -14 21 -12 49 l3 41 -140 -66 c-78 -37 -139 -68 -138 -70 4 -4 1438 -713 1442 -713 1 0 331 163 732 363 l730 363 -296 157 c-163 86 -301 157 -306 157 -6 -1 -20 -6 -32 -13z" style="fill: rgb(255, 255, 255);"/>
    <path d="M1380 2038 l1 -43 622 -308 622 -308 490 240 c270 133 494 242 498 244 5 1 7 21 5 43 l-3 41 -493 -243 -494 -243 -619 309 c-340 171 -621 310 -624 310 -3 0 -5 -19 -5 -42z" style="fill: rgb(255, 255, 255);"/>
    <path d="M3247 1494 l-749 -375 -71 35 c-40 19 -377 185 -749 369 l-678 336 0 -273 0 -272 85 -40 c47 -21 383 -187 747 -367 l663 -328 752 368 752 368 1 278 c0 152 -1 277 -2 276 -2 0 -340 -169 -751 -375z" style="fill: rgb(255, 255, 255);"/>
  </g>
</svg>